<svg width="168" height="103" viewBox="0 0 168 103" fill="none" xmlns="http://www.w3.org/2000/svg">
<path d="M60.4542 52.6396C75.8531 82.1431 110.961 88.2821 141.891 72.1381L157.592 63.9434" stroke="#DEDEDE" stroke-width="7" stroke-linecap="round"/>
<path d="M151.07 97.1931L162.283 61.4949L126.585 50.2817" stroke="#DEDEDE" stroke-width="7" stroke-linecap="round"/>
<path d="M10.2449 6.9875V8.9227H3.91477V6.9875H10.2449ZM0.00738701 10.533H2.3267C2.45473 11.5277 2.78466 12.2885 3.31648 12.8154C3.85323 13.3422 4.68788 13.6057 5.82046 13.6057C6.65758 13.6057 7.34697 13.3841 7.88864 12.9409C8.43031 12.4928 8.83162 11.8871 9.09261 11.1239C9.35852 10.3606 9.49147 9.5038 9.49147 8.5534V7.0171C9.49147 5.9928 9.34376 5.1015 9.0483 4.3432C8.75285 3.5849 8.32198 2.9989 7.75569 2.5852C7.19432 2.1716 6.50739 1.9648 5.69489 1.9648C4.96118 1.9648 4.36041 2.0904 3.89261 2.3415C3.42481 2.5926 3.06535 2.9521 2.81421 3.4199C2.568 3.8828 2.40549 4.4417 2.3267 5.0966H0C0.098485 4.1216 0.369319 3.25 0.812505 2.4818C1.26061 1.7136 1.88845 1.108 2.69603 0.664801C3.50853 0.221601 4.50815 0 5.69489 0C6.94565 0 8.02651 0.290501 8.9375 0.871601C9.85337 1.4477 10.5601 2.2602 11.0574 3.3091C11.5548 4.358 11.8034 5.589 11.8034 7.0023V8.5756C11.8034 9.9888 11.5572 11.2174 11.0648 12.2614C10.5773 13.3053 9.88537 14.1129 8.9892 14.6841C8.09299 15.2553 7.03675 15.5409 5.82046 15.5409C4.60417 15.5409 3.58239 15.3243 2.75512 14.8909C1.92785 14.4527 1.28768 13.8568 0.834655 13.1034C0.381629 12.3451 0.105872 11.4883 0.00738701 10.533ZM13.8328 5.8943V3.9886H23.4056V5.8943H19.705V15.3341H17.5482V5.8943H13.8328ZM29.9924 15.5631C28.9287 15.5631 28.0005 15.3193 27.2077 14.8318C26.4149 14.3443 25.7994 13.6623 25.3611 12.7858C24.9228 11.9093 24.7037 10.885 24.7037 9.7131C24.7037 8.5362 24.9228 7.507 25.3611 6.6256C25.7994 5.7441 26.4149 5.0597 27.2077 4.5722C28.0005 4.0847 28.9287 3.8409 29.9924 3.8409C31.056 3.8409 31.9842 4.0847 32.777 4.5722C33.5698 5.0597 34.1853 5.7441 34.6236 6.6256C35.0619 7.507 35.281 8.5362 35.281 9.7131C35.281 10.885 35.0619 11.9093 34.6236 12.7858C34.1853 13.6623 33.5698 14.3443 32.777 14.8318C31.9842 15.3193 31.056 15.5631 29.9924 15.5631ZM29.9997 13.7091C30.6891 13.7091 31.2603 13.5269 31.7134 13.1625C32.1664 12.7981 32.5013 12.3131 32.7179 11.7074C32.9395 11.1017 33.0503 10.4345 33.0503 9.7057C33.0503 8.9818 32.9395 8.3171 32.7179 7.7114C32.5013 7.1008 32.1664 6.6108 31.7134 6.2415C31.2603 5.8722 30.6891 5.6875 29.9997 5.6875C29.3054 5.6875 28.7293 5.8722 28.2713 6.2415C27.8183 6.6108 27.481 7.1008 27.2594 7.7114C27.0427 8.3171 26.9344 8.9818 26.9344 9.7057C26.9344 10.4345 27.0427 11.1017 27.2594 11.7074C27.481 12.3131 27.8183 12.7981 28.2713 13.1625C28.7293 13.5269 29.3054 13.7091 29.9997 13.7091ZM49.6179 12.6011L53.2816 3.9886H55.1872L50.4378 15.3341H48.798L44.1446 3.9886H46.0281L49.6179 12.6011ZM45.4151 3.9886V15.3341H43.2509V3.9886H45.4151ZM53.8799 15.3341V3.9886H56.0293V15.3341H53.8799ZM63.7517 15.5631C62.6881 15.5631 61.7599 15.3193 60.9671 14.8318C60.1743 14.3443 59.5587 13.6623 59.1205 12.7858C58.6822 11.9093 58.4631 10.885 58.4631 9.7131C58.4631 8.5362 58.6822 7.507 59.1205 6.6256C59.5587 5.7441 60.1743 5.0597 60.9671 4.5722C61.7599 4.0847 62.6881 3.8409 63.7517 3.8409C64.8154 3.8409 65.7436 4.0847 66.5364 4.5722C67.3292 5.0597 67.9447 5.7441 68.383 6.6256C68.8212 7.507 69.0404 8.5362 69.0404 9.7131C69.0404 10.885 68.8212 11.9093 68.383 12.7858C67.9447 13.6623 67.3292 14.3443 66.5364 14.8318C65.7436 15.3193 64.8154 15.5631 63.7517 15.5631ZM63.7591 13.7091C64.4485 13.7091 65.0197 13.5269 65.4728 13.1625C65.9258 12.7981 66.2606 12.3131 66.4773 11.7074C66.6989 11.1017 66.8097 10.4345 66.8097 9.7057C66.8097 8.9818 66.6989 8.3171 66.4773 7.7114C66.2606 7.1008 65.9258 6.6108 65.4728 6.2415C65.0197 5.8722 64.4485 5.6875 63.7591 5.6875C63.0648 5.6875 62.4887 5.8722 62.0307 6.2415C61.5777 6.6108 61.2404 7.1008 61.0188 7.7114C60.8021 8.3171 60.6938 8.9818 60.6938 9.7057C60.6938 10.4345 60.8021 11.1017 61.0188 11.7074C61.2404 12.3131 61.5777 12.7981 62.0307 13.1625C62.4887 13.5269 63.0648 13.7091 63.7591 13.7091ZM76.3953 15.5631C75.2775 15.5631 74.3148 15.3243 73.5073 14.8466C72.7046 14.364 72.0842 13.6869 71.6459 12.8154C71.2126 11.9388 70.9959 10.9121 70.9959 9.7352C70.9959 8.5731 71.2126 7.5489 71.6459 6.6625C72.0842 5.7761 72.6948 5.0843 73.4777 4.5869C74.2656 4.0896 75.1864 3.8409 76.2402 3.8409C76.8804 3.8409 77.5008 3.9468 78.1016 4.1585C78.7023 4.3703 79.2415 4.7027 79.7192 5.1557C80.1969 5.6087 80.5736 6.1972 80.8493 6.921C81.1251 7.64 81.263 8.514 81.263 9.5432V10.3261H72.2442V8.6716H79.0987C79.0987 8.0905 78.9806 7.576 78.7442 7.1279C78.5078 6.6748 78.1755 6.3178 77.747 6.0568C77.3236 5.7958 76.8262 5.6654 76.255 5.6654C75.6345 5.6654 75.0929 5.818 74.63 6.1233C74.172 6.4237 73.8175 6.8176 73.5664 7.3051C73.3201 7.7877 73.197 8.3121 73.197 8.8784V10.171C73.197 10.9294 73.33 11.5744 73.5959 12.1063C73.8667 12.6381 74.2434 13.0443 74.726 13.325C75.2086 13.6008 75.7724 13.7386 76.4175 13.7386C76.8361 13.7386 77.2177 13.6796 77.5624 13.5614C77.9071 13.4383 78.205 13.2561 78.4561 13.0148C78.7073 12.7735 78.8993 12.4756 79.0323 12.121L81.1226 12.4977C80.9552 13.1133 80.6548 13.6525 80.2215 14.1154C79.7931 14.5733 79.2539 14.9303 78.6039 15.1864C77.9588 15.4375 77.2226 15.5631 76.3953 15.5631ZM44.0911 44.1972V25.2068H46.2996V44.1972H44.0911ZM44.0911 40.5631C43.2884 40.5631 42.5572 40.4252 41.8973 40.1494C41.2375 39.8688 40.6687 39.4699 40.1911 38.9529C39.7134 38.4358 39.3441 37.8178 39.0831 37.0989C38.8271 36.3799 38.699 35.5847 38.699 34.7131C38.699 33.8316 38.8271 33.0314 39.0831 32.3125C39.3441 31.5936 39.7134 30.9756 40.1911 30.4585C40.6687 29.9415 41.2375 29.5426 41.8973 29.2619C42.5572 28.9813 43.2884 28.8409 44.0911 28.8409H44.6377V40.5631H44.0911ZM44.0911 38.7017H44.4013V30.7023H44.0911C43.5593 30.7023 43.0964 30.8106 42.7024 31.0273C42.3085 31.239 41.981 31.532 41.7201 31.9063C41.4591 32.2756 41.2621 32.7015 41.1291 33.1841C41.0011 33.6667 40.9371 34.1763 40.9371 34.7131C40.9371 35.432 41.0528 36.0943 41.2843 36.7C41.5157 37.3008 41.8653 37.7858 42.3331 38.1551C42.8009 38.5195 43.3869 38.7017 44.0911 38.7017ZM46.2996 40.5631H45.7456V28.8409H46.2996C47.1022 28.8409 47.8335 28.9813 48.4933 29.2619C49.1532 29.5426 49.7195 29.9415 50.1922 30.4585C50.6699 30.9756 51.0367 31.5936 51.2928 32.3125C51.5538 33.0314 51.6843 33.8316 51.6843 34.7131C51.6843 35.5847 51.5538 36.3799 51.2928 37.0989C51.0367 37.8178 50.6699 38.4358 50.1922 38.9529C49.7195 39.4699 49.1532 39.8688 48.4933 40.1494C47.8335 40.4252 47.1022 40.5631 46.2996 40.5631ZM46.2996 38.7017C46.8314 38.7017 47.2943 38.5983 47.6882 38.3915C48.0822 38.1797 48.4096 37.8892 48.6706 37.5199C48.9316 37.1457 49.1261 36.7197 49.2541 36.2421C49.3822 35.7595 49.4462 35.2498 49.4462 34.7131C49.4462 33.9991 49.3305 33.3392 49.099 32.7335C48.8725 32.1229 48.5254 31.633 48.0576 31.2636C47.5897 30.8894 47.0038 30.7023 46.2996 30.7023H45.982V38.7017H46.2996ZM58.9174 40.5631C57.8537 40.5631 56.9255 40.3193 56.1327 39.8318C55.3399 39.3443 54.7244 38.6623 54.2861 37.7858C53.8478 36.9093 53.6287 35.885 53.6287 34.7131C53.6287 33.5362 53.8478 32.507 54.2861 31.6256C54.7244 30.7441 55.3399 30.0597 56.1327 29.5722C56.9255 29.0847 57.8537 28.8409 58.9174 28.8409C59.981 28.8409 60.9092 29.0847 61.702 29.5722C62.4948 30.0597 63.1103 30.7441 63.5486 31.6256C63.9869 32.507 64.206 33.5362 64.206 34.7131C64.206 35.885 63.9869 36.9093 63.5486 37.7858C63.1103 38.6623 62.4948 39.3443 61.702 39.8318C60.9092 40.3193 59.981 40.5631 58.9174 40.5631ZM58.9247 38.7091C59.6141 38.7091 60.1853 38.5269 60.6384 38.1625C61.0914 37.7981 61.4263 37.3131 61.6429 36.7074C61.8645 36.1017 61.9753 35.4345 61.9753 34.7057C61.9753 33.9818 61.8645 33.3171 61.6429 32.7114C61.4263 32.1008 61.0914 31.6108 60.6384 31.2415C60.1853 30.8722 59.6141 30.6875 58.9247 30.6875C58.2304 30.6875 57.6543 30.8722 57.1963 31.2415C56.7433 31.6108 56.406 32.1008 56.1844 32.7114C55.9677 33.3171 55.8594 33.9818 55.8594 34.7057C55.8594 35.4345 55.9677 36.1017 56.1844 36.7074C56.406 37.3131 56.7433 37.7981 57.1963 38.1625C57.6543 38.5269 58.2304 38.7091 58.9247 38.7091ZM65.3047 30.8943V28.9886H74.8774V30.8943H71.1769V40.3341H69.0201V30.8943H65.3047ZM81.4642 40.5631C80.4006 40.5631 79.4724 40.3193 78.6796 39.8318C77.8868 39.3443 77.2712 38.6623 76.833 37.7858C76.3947 36.9093 76.1756 35.885 76.1756 34.7131C76.1756 33.5362 76.3947 32.507 76.833 31.6256C77.2712 30.7441 77.8868 30.0597 78.6796 29.5722C79.4724 29.0847 80.4006 28.8409 81.4642 28.8409C82.5279 28.8409 83.4561 29.0847 84.2489 29.5722C85.0417 30.0597 85.6572 30.7441 86.0955 31.6256C86.5337 32.507 86.7529 33.5362 86.7529 34.7131C86.7529 35.885 86.5337 36.9093 86.0955 37.7858C85.6572 38.6623 85.0417 39.3443 84.2489 39.8318C83.4561 40.3193 82.5279 40.5631 81.4642 40.5631ZM81.4716 38.7091C82.161 38.7091 82.7322 38.5269 83.1853 38.1625C83.6383 37.7981 83.9731 37.3131 84.1898 36.7074C84.4114 36.1017 84.5222 35.4345 84.5222 34.7057C84.5222 33.9818 84.4114 33.3171 84.1898 32.7114C83.9731 32.1008 83.6383 31.6108 83.1853 31.2415C82.7322 30.8722 82.161 30.6875 81.4716 30.6875C80.7773 30.6875 80.2012 30.8722 79.7432 31.2415C79.2902 31.6108 78.9529 32.1008 78.7313 32.7114C78.5146 33.3171 78.4063 33.9818 78.4063 34.7057C78.4063 35.4345 78.5146 36.1017 78.7313 36.7074C78.9529 37.3131 79.2902 37.7981 79.7432 38.1625C80.2012 38.5269 80.7773 38.7091 81.4716 38.7091Z" fill="#DEDEDE"/>
</svg>
